<?xml version="1.0" standalone="no"?>
<!DOCTYPE svg PUBLIC "-//W3C//DTD SVG 20010904//EN"
 "http://www.w3.org/TR/2001/REC-SVG-20010904/DTD/svg10.dtd">
<svg version="1.0" xmlns="http://www.w3.org/2000/svg"
 width="256.000000pt" height="197.000000pt" viewBox="0 0 256.000000 197.000000"
 preserveAspectRatio="xMidYMid meet">
<metadata>
Created by potrace 1.16, written by Peter Selinger 2001-2019
</metadata>
<g transform="translate(0.000000,197.000000) scale(0.100000,-0.100000)"
fill="#000000" stroke="none">
<path d="M1087 1950 c-449 -82 -775 -331 -856 -653 -18 -71 -19 -72 -67 -95
-27 -13 -62 -36 -77 -50 -39 -37 -77 -114 -84 -171 -5 -40 -2 -51 20 -76 13
-16 40 -34 58 -40 l34 -12 -4 -86 c-3 -75 0 -92 23 -142 14 -31 39 -74 56 -95
25 -32 30 -47 30 -92 0 -156 113 -318 278 -396 l77 -37 734 -3 c712 -3 735 -3
800 17 69 21 145 64 195 110 76 70 146 222 146 320 0 39 7 55 40 100 53 71 75
146 65 225 -5 34 -7 77 -6 96 10 180 -2 237 -66 311 -19 22 -34 53 -41 89 -36
187 -163 359 -356 485 -213 139 -426 201 -722 210 -141 4 -187 2 -277 -15z
m479 -105 c305 -53 580 -217 706 -420 31 -50 68 -148 68 -180 l0 -25 -1004 0
c-553 0 -1007 3 -1009 8 -8 14 23 115 54 172 86 162 321 335 550 405 181 55
449 72 635 40z m855 -755 c18 -24 42 -120 31 -120 -3 0 -37 18 -75 41 -113 67
-189 63 -227 -12 -15 -29 -29 -41 -57 -48 -78 -22 -173 -8 -173 25 0 27 -63
81 -111 94 -25 7 -81 10 -130 8 -100 -5 -145 -25 -171 -78 -28 -58 -32 -60
-121 -60 -93 0 -103 4 -112 43 -9 36 -56 74 -108 88 -23 6 -78 9 -122 7 -100
-6 -160 -33 -181 -84 -19 -44 -49 -56 -138 -52 l-71 3 -20 39 c-37 71 -61 81
-188 80 -127 -1 -165 -12 -221 -69 -29 -28 -43 -35 -76 -35 -34 0 -40 3 -40
20 0 48 55 114 106 130 16 4 515 8 1108 7 l1079 -2 18 -25z m-1282 -119 c13
-3 27 -13 31 -21 4 -8 14 -28 21 -43 24 -51 80 -72 194 -72 124 0 177 22 204
86 19 45 49 60 120 58 73 -2 93 -11 116 -54 13 -27 34 -47 65 -63 40 -21 56
-23 140 -20 112 5 166 27 199 83 l21 36 32 -17 c76 -39 138 -85 153 -113 20
-39 19 -133 -1 -174 -21 -41 -62 -85 -96 -103 -23 -12 -183 -14 -1006 -14
l-978 0 -41 26 c-22 15 -52 45 -67 67 -22 35 -26 52 -26 112 0 59 4 76 25 108
14 20 30 37 36 37 5 0 14 11 20 24 15 32 50 46 129 53 73 6 110 -6 110 -35 0
-23 31 -57 73 -79 23 -13 56 -17 122 -18 76 0 98 4 140 25 29 14 60 40 73 60
13 19 35 40 50 47 29 13 102 15 141 4z m-538 -642 c30 -59 60 -105 73 -110 16
-7 87 13 321 93 l300 103 523 5 524 5 -6 -33 c-14 -91 -107 -207 -201 -251
-31 -15 -81 -27 -130 -32 -101 -10 -1022 -10 -1255 0 -153 6 -180 10 -218 30
-92 47 -168 139 -197 236 l-14 44 112 4 c62 1 113 4 114 5 1 1 25 -43 54 -99z"/>
<path d="M1165 1715 c-49 -48 -55 -73 -27 -98 30 -27 57 -20 101 28 46 50 50
66 21 95 -29 29 -45 25 -95 -25z"/>
<path d="M1562 1688 c-23 -23 -13 -57 28 -98 41 -41 75 -51 98 -28 23 23 13
63 -26 101 -39 38 -77 48 -100 25z"/>
<path d="M683 1555 c-47 -50 -53 -73 -23 -100 27 -24 60 -14 104 35 41 46 44
62 16 90 -30 30 -49 25 -97 -25z"/>
<path d="M1324 1446 c-49 -48 -53 -67 -24 -96 29 -29 45 -25 95 25 49 48 55
73 27 98 -29 26 -51 20 -98 -27z"/>
<path d="M1998 1479 c-33 -19 -22 -63 27 -108 50 -46 52 -47 83 -25 33 23 27
57 -16 104 -39 40 -63 48 -94 29z"/>
</g>
</svg>
