<svg id="Out_line" height="512" viewBox="0 0 512 512" width="512" xmlns="http://www.w3.org/2000/svg" data-name="Out line"><path d="m48 184h88a8.00008 8.00008 0 0 0 8-8 95.32865 95.32865 0 0 0 -28.12549-67.87793 8.00121 8.00121 0 0 0 -11.31152.001l-62.21973 62.2197a8.0001 8.0001 0 0 0 5.65674 13.65723zm61.94385-58.62988a79.18878 79.18878 0 0 1 17.66357 42.62988h-8.05957a71.27587 71.27587 0 0 0 -15.29455-36.93945zm-17.08765 17.0874a55.39511 55.39511 0 0 1 10.57422 25.54248h-36.11694z"/><path d="m488 16h-200a39.96366 39.96366 0 0 0 -32 16.02783 39.96366 39.96366 0 0 0 -32-16.02783h-200a8.00008 8.00008 0 0 0 -8 8v432a8.00008 8.00008 0 0 0 8 8h200a24.0275 24.0275 0 0 1 24 24 8 8 0 0 0 16 0 24.0275 24.0275 0 0 1 24-24h200a8.00008 8.00008 0 0 0 8-8v-432a8.00008 8.00008 0 0 0 -8-8zm-264 432h-192v-416h192a24.0275 24.0275 0 0 1 24 24v400.01855a39.79847 39.79847 0 0 0 -24-8.01855zm256 0h-192a39.79015 39.79015 0 0 0 -24 8.022v-400.022a24.0275 24.0275 0 0 1 24-24h192z"/><path d="m136 248.40308v-8.40308a24.0275 24.0275 0 0 0 -24-24h-32a24.0275 24.0275 0 0 0 -24 24v8.40308a20.00123 20.00123 0 0 0 0 39.19384v8.40308a24.0275 24.0275 0 0 0 24 24h32a24.0275 24.0275 0 0 0 24-24v-8.40308a20.00123 20.00123 0 0 0 0-39.19384zm-56-16.40308h32a8.00917 8.00917 0 0 1 8 8v8h-48v-8a8.00917 8.00917 0 0 1 8-8zm32 72h-32a8.00917 8.00917 0 0 1 -8-8v-8h48v8a8.00917 8.00917 0 0 1 -8 8zm20-32h-72a4 4 0 0 1 0-8h72a4 4 0 0 1 0 8z"/><path d="m144 344h-8v-8a8 8 0 0 0 -16 0v12.686l-8.90625 8.90625c-7.40015-3.78541-17.10181-4.54468-28.145-2.08741-11.917 2.65137-23.88477 8.86328-31.23291 16.21094a39.99987 39.99987 0 1 0 56.56836 56.56836c7.34814-7.34766 13.56006-19.31543 16.21094-31.2334 2.45654-11.04248 1.69677-20.74414-2.08789-28.144l8.90675-8.90674h12.686a8 8 0 0 0 0-16zm-35.123 49.57617c-1.99658 8.97559-6.66992 18.15821-11.90625 23.39356a23.99951 23.99951 0 1 1 -33.9414-33.93946c5.23632-5.2373 14.41943-9.91113 23.39453-11.90722a39.86289 39.86289 0 0 1 8.585-1.01758c4.98975 0 8.9956 1.21289 11.33447 3.55176 3.56729 3.56738 4.51505 11.01465 2.53365 19.91894z"/><path d="m72 88h128a8.00008 8.00008 0 0 0 8-8v-32a8.00008 8.00008 0 0 0 -8-8h-128a8.00008 8.00008 0 0 0 -8 8v32a8.00008 8.00008 0 0 0 8 8zm8-32h112v16h-112z"/><path d="m312 88h128a8.00008 8.00008 0 0 0 8-8v-32a8.00008 8.00008 0 0 0 -8-8h-128a8.00008 8.00008 0 0 0 -8 8v32a8.00008 8.00008 0 0 0 8 8zm8-32h112v16h-112z"/><path d="m160 112h32v16h-32z"/><path d="m176 136h32v16h-32z"/><path d="m224 136h16v16h-16z"/><path d="m160 160h32v16h-32z"/><path d="m208 160h32v16h-32z"/><path d="m160 232h32v16h-32z"/><path d="m176 256h32v16h-32z"/><path d="m224 256h16v16h-16z"/><path d="m160 280h32v16h-32z"/><path d="m208 280h32v16h-32z"/><path d="m160 368h32v16h-32z"/><path d="m176 392h32v16h-32z"/><path d="m224 392h16v16h-16z"/><path d="m160 416h32v16h-32z"/><path d="m208 416h32v16h-32z"/><path d="m392 112h32v16h-32z"/><path d="m408 136h32v16h-32z"/><path d="m456 136h16v16h-16z"/><path d="m392 160h32v16h-32z"/><path d="m440 160h32v16h-32z"/><path d="m392 232h32v16h-32z"/><path d="m408 256h32v16h-32z"/><path d="m456 256h16v16h-16z"/><path d="m392 280h32v16h-32z"/><path d="m440 280h32v16h-32z"/><path d="m392 368h32v16h-32z"/><path d="m408 392h32v16h-32z"/><path d="m456 392h16v16h-16z"/><path d="m392 416h32v16h-32z"/><path d="m440 416h32v16h-32z"/><path d="m296.15527 145.56934 8 40a8 8 0 0 0 7.84473 6.43066h32a8 8 0 0 0 7.84473-6.43066l8-40a7.98963 7.98963 0 0 0 .14673-1.56934h.00854v-8a31.79428 31.79428 0 0 0 -4.44434-16.2417l10.10108-10.10107-11.31348-11.31446-10.10156 10.10157a31.97843 31.97843 0 0 0 -48.2417 27.55566v8h.00854a7.98963 7.98963 0 0 0 .14673 1.56934zm41.28614 30.43066h-18.88282l-4.80029-24h28.4834zm-9.44141-56a16.01833 16.01833 0 0 1 16 16h-32a16.01833 16.01833 0 0 1 16-16z"/><path d="m360 224h-72a8.00008 8.00008 0 0 0 -8 8v40a23.90134 23.90134 0 0 0 6.13086 16h-6.13086a8 8 0 0 0 0 16h80a8 8 0 0 0 0-16h-6.13086a23.90134 23.90134 0 0 0 6.13086-16 24 24 0 0 0 0-48zm-64 16h48v32a8.00917 8.00917 0 0 1 -8 8h-32a8.00917 8.00917 0 0 1 -8-8zm64 16v-16a8 8 0 0 1 0 16z"/><path d="m352 344a24.02718 24.02718 0 0 0 -24 24h-10.23389l-6.17675-18.53027a7.99967 7.99967 0 0 0 -7.58936-5.46973h-16a8 8 0 0 0 0 16h10.23389l2.66674 8h-4.90063a8.00061 8.00061 0 0 0 -7.91943 9.13184l8 56a7.99986 7.99986 0 0 0 7.91943 6.86816h32a7.99986 7.99986 0 0 0 7.91943-6.86816l5.89173-41.24219c.72522.06592 1.4541.11035 2.18884.11035a24 24 0 0 0 0-48zm-22.93848 80h-18.123l-5.71436-40h6.75l.0249.002.02442-.002h22.75244zm22.93848-48-.01-.00073a7.98257 7.98257 0 0 0 -7.99-7.99927 8 8 0 1 1 8 8z"/></svg>