<?xml version="1.0" encoding="iso-8859-1"?>
<!-- Generator: Adobe Illustrator 19.0.0, SVG Export Plug-In . SVG Version: 6.00 Build 0)  -->
<svg version="1.1" id="Capa_1" xmlns="http://www.w3.org/2000/svg" xmlns:xlink="http://www.w3.org/1999/xlink" x="0px" y="0px"
	 viewBox="0 0 395.945 395.945" style="enable-background:new 0 0 395.945 395.945;" xml:space="preserve">
<rect x="37.546" y="75.092" style="fill:#777777;" width="320.853" height="314.027"/>
<path d="M358.399,395.945H37.546c-3.77,0-6.827-3.057-6.827-6.827V75.092c0-3.77,3.057-6.827,6.827-6.827h320.853
	c3.773,0,6.827,3.057,6.827,6.827v314.027C365.226,392.888,362.173,395.945,358.399,395.945z M44.372,382.292h307.2V81.918h-307.2
	V382.292z"/>
<rect x="112.639" y="47.785" style="fill:#FFFFFF;" width="218.453" height="320.853"/>
<path d="M331.092,375.465H112.639c-3.77,0-6.827-3.057-6.827-6.827V47.785c0-3.77,3.057-6.827,6.827-6.827h218.453
	c3.773,0,6.827,3.057,6.827,6.827v320.853C337.919,372.408,334.866,375.465,331.092,375.465z M119.466,361.812h204.8v-307.2h-204.8
	V361.812z"/>
<polygon style="fill:#EE5281;" points="296.959,348.158 37.546,389.118 37.546,47.785 296.959,6.825 "/>
<path d="M37.546,395.945c-1.613,0-3.19-0.573-4.434-1.637c-1.521-1.297-2.393-3.193-2.393-5.19V47.785
	c0-3.36,2.444-6.221,5.763-6.743l259.41-40.96c2.007-0.307,3.98,0.259,5.501,1.553c1.521,1.297,2.393,3.193,2.393,5.19v341.333
	c0,3.36-2.447,6.221-5.76,6.743l-259.417,40.96C38.256,395.919,37.899,395.945,37.546,395.945z M44.372,53.618v327.509
	l245.76-38.803V14.815L44.372,53.618z M296.959,348.158h0.067H296.959z"/>
<path d="M170.145,99.679c-0.773,0-1.434-0.147-1.98-0.44c-0.546-0.294-1.021-0.667-1.42-1.12c-0.399-0.452-0.741-0.959-1.021-1.521
	c-0.28-0.561-0.514-1.106-0.7-1.64l-7.6-21.92h-1.039v33.36c0,0.853-0.053,1.654-0.16,2.4c-0.108,0.746-0.34,1.406-0.7,1.98
	c-0.36,0.573-0.893,1.027-1.601,1.36s-1.673,0.5-2.9,0.5c-1.386,0-2.48-0.167-3.28-0.5s-1.399-0.787-1.801-1.36
	c-0.399-0.573-0.654-1.234-0.759-1.98c-0.106-0.746-0.16-1.546-0.16-2.4V65.759c0-1.147,0.034-2.266,0.101-3.36
	c0.067-1.094,0.287-2.067,0.66-2.92s0.966-1.539,1.78-2.06c0.814-0.521,1.966-0.78,3.459-0.78h5.441
	c0.906,0,1.673,0.034,2.301,0.101s1.207,0.294,1.741,0.679c0.534,0.386,1.06,1.007,1.58,1.86s1.094,2.06,1.72,3.62
	c0.626,1.56,1.353,3.546,2.179,5.96s1.84,5.379,3.04,8.9l1.039,3.2h0.959l1.28-4c1.094-3.36,2.028-6.2,2.801-8.52
	c0.773-2.319,1.454-4.233,2.039-5.74c0.585-1.507,1.113-2.666,1.58-3.48c0.468-0.814,0.959-1.413,1.48-1.801
	c0.521-0.387,1.087-0.613,1.7-0.679c0.613-0.067,1.36-0.101,2.239-0.101h5.84c1.493,0,2.647,0.259,3.459,0.78
	c0.812,0.521,1.406,1.207,1.78,2.06s0.594,1.826,0.66,2.92c0.067,1.094,0.101,2.214,0.101,3.36v40.639c0,0.853-0.053,1.654-0.16,2.4
	c-0.108,0.746-0.36,1.406-0.759,1.98c-0.399,0.573-1,1.027-1.801,1.36s-1.893,0.5-3.28,0.5c-1.227,0-2.193-0.167-2.9-0.5
	s-1.241-0.787-1.601-1.36c-0.36-0.573-0.594-1.234-0.7-1.98s-0.16-1.546-0.16-2.4v-33.36h-1.12l-7.52,21.92
	c-0.213,0.532-0.454,1.08-0.72,1.64s-0.601,1.067-1,1.521s-0.867,0.826-1.399,1.12c-0.533,0.294-1.174,0.44-1.92,0.44H170.145z"/>
<path d="M178.226,127.636c1.067,0,2.147,0.039,3.239,0.119s2.08,0.307,2.959,0.679s1.601,0.94,2.161,1.7
	c0.56,0.759,0.84,1.819,0.84,3.18c0,1.36-0.28,2.42-0.84,3.18c-0.56,0.759-1.28,1.326-2.161,1.7s-1.867,0.601-2.959,0.679
	c-1.092,0.079-2.173,0.119-3.239,0.119h-9.52v10.88h5.04c1.067,0,2.14,0.034,3.22,0.101c1.08,0.067,2.039,0.28,2.881,0.64
	c0.841,0.36,1.527,0.906,2.06,1.64c0.532,0.734,0.8,1.753,0.8,3.06c0,1.333-0.266,2.36-0.8,3.081c-0.534,0.72-1.22,1.26-2.06,1.62
	c-0.84,0.36-1.801,0.573-2.881,0.64c-1.08,0.067-2.154,0.101-3.22,0.101h-5.04v11.52h9.52c1.067,0,2.147,0.039,3.239,0.119
	s2.08,0.3,2.959,0.66c0.879,0.36,1.601,0.92,2.161,1.679c0.56,0.759,0.84,1.807,0.84,3.14c0,1.386-0.287,2.466-0.86,3.239
	s-1.3,1.347-2.179,1.72c-0.879,0.374-1.867,0.601-2.959,0.679s-2.161,0.119-3.2,0.119h-15.681c-1.493,0-2.647-0.266-3.459-0.8
	c-0.812-0.534-1.406-1.234-1.78-2.099c-0.374-0.865-0.594-1.847-0.66-2.941c-0.067-1.094-0.101-2.214-0.101-3.36v-37.6
	c0-1.147,0.034-2.266,0.101-3.36c0.067-1.094,0.287-2.074,0.66-2.941s0.966-1.567,1.78-2.099c0.814-0.532,1.966-0.8,3.459-0.8
	h15.681V127.636z"/>
<path d="M180.105,238.073h0.959v-33.2c0-0.853,0.053-1.661,0.16-2.42c0.106-0.759,0.34-1.42,0.7-1.98
	c0.36-0.56,0.893-1.007,1.601-1.34c0.708-0.333,1.673-0.5,2.9-0.5c1.36,0,2.434,0.167,3.22,0.5c0.787,0.333,1.381,0.78,1.78,1.34
	c0.399,0.56,0.654,1.22,0.759,1.98c0.106,0.759,0.16,1.567,0.16,2.42v40.561c0,1.174-0.034,2.307-0.101,3.4
	c-0.067,1.092-0.28,2.074-0.64,2.941s-0.947,1.56-1.76,2.08c-0.812,0.521-1.954,0.78-3.42,0.78h-5.28
	c-1.253,0-2.301-0.247-3.14-0.741c-0.84-0.493-1.539-1.094-2.099-1.801c-0.56-0.707-1.007-1.447-1.34-2.22s-0.594-1.427-0.78-1.959
	l-12.08-32.72h-0.959v33.2c0,0.853-0.053,1.661-0.16,2.42c-0.107,0.759-0.34,1.42-0.7,1.98c-0.36,0.56-0.893,1.007-1.601,1.34
	c-0.708,0.333-1.673,0.5-2.9,0.5c-1.386,0-2.48-0.167-3.28-0.5c-0.8-0.333-1.399-0.78-1.801-1.34c-0.401-0.56-0.654-1.22-0.759-1.98
	s-0.16-1.567-0.16-2.42v-40.561c0-1.147,0.034-2.273,0.101-3.379s0.287-2.094,0.66-2.959s0.966-1.56,1.78-2.08
	s1.966-0.78,3.459-0.78h5.28c1.333,0,2.42,0.259,3.26,0.78c0.84,0.521,1.527,1.087,2.06,1.7c0.587,0.72,1.053,1.546,1.399,2.48
	L180.105,238.073z"/>
<path d="M152.186,278.753c0-1.147,0.06-2.266,0.179-3.36c0.119-1.094,0.399-2.067,0.84-2.92c0.44-0.853,1.101-1.539,1.98-2.06
	c0.879-0.521,2.094-0.78,3.64-0.78s2.766,0.259,3.661,0.78c0.894,0.521,1.56,1.207,2,2.06c0.44,0.853,0.713,1.826,0.819,2.92
	c0.106,1.094,0.16,2.214,0.16,3.36v31.519c0.08,1.174,0.321,2.214,0.72,3.12c0.16,0.399,0.374,0.787,0.64,1.161s0.58,0.707,0.94,1
	c0.36,0.294,0.787,0.527,1.28,0.7c0.493,0.172,1.06,0.259,1.7,0.259s1.213-0.087,1.72-0.259c0.507-0.172,0.94-0.406,1.3-0.7
	c0.36-0.294,0.674-0.626,0.94-1s0.48-0.759,0.64-1.161c0.399-0.906,0.626-1.947,0.679-3.12v-31.52c0-1.147,0.053-2.266,0.16-3.36
	s0.381-2.067,0.819-2.92c0.439-0.853,1.101-1.539,1.98-2.06c0.879-0.521,2.106-0.78,3.68-0.78c1.546,0,2.76,0.259,3.64,0.78
	c0.881,0.521,1.539,1.207,1.98,2.06s0.72,1.826,0.84,2.92s0.179,2.214,0.179,3.36v30.479c0,2.773-0.447,5.2-1.34,7.281
	s-2.161,3.82-3.801,5.221s-3.599,2.454-5.879,3.161c-2.28,0.707-4.794,1.06-7.54,1.06c-2.773,0-5.294-0.367-7.561-1.101
	c-2.266-0.734-4.221-1.807-5.861-3.22s-2.906-3.161-3.801-5.239c-0.894-2.079-1.34-4.466-1.34-7.159v-30.479H152.186z"/>
<g>
</g>
<g>
</g>
<g>
</g>
<g>
</g>
<g>
</g>
<g>
</g>
<g>
</g>
<g>
</g>
<g>
</g>
<g>
</g>
<g>
</g>
<g>
</g>
<g>
</g>
<g>
</g>
<g>
</g>
</svg>
